<svg width="400" height="80" viewBox="0 0 400 80" fill="none" xmlns="http://www.w3.org/2000/svg">
  <defs>
    <linearGradient id="hexGradientHD" x1="10" y1="10" x2="90" y2="90" gradientUnits="userSpaceOnUse">
      <stop offset="0%" stop-color="#4F46E5" />
      <stop offset="50%" stop-color="#7C3AED" />
      <stop offset="100%" stop-color="#2563EB" />
    </linearGradient>
    <linearGradient id="strokeGradientHD" x1="0" y1="0" x2="100" y2="100" gradientUnits="userSpaceOnUse">
      <stop offset="0%" stop-color="#6366F1" />
      <stop offset="100%" stop-color="#3B82F6" />
    </linearGradient>
  </defs>

  <!-- Icon Group -->
  <g transform="translate(0, 5) scale(0.7)">
    <path d="M50 10 L84.64 30 V70 L50 90 L15.36 70 V30 Z" fill="url(#hexGradientHD)" stroke="url(#strokeGradientHD)" stroke-width="2" />
    <path d="M50 16 L79.44 33 V67 L50 84 L20.56 67 V33 Z" stroke="white" stroke-opacity="0.3" stroke-width="1" fill="none" />
    <path d="M84.64 30 L95 24" stroke="#A5B4FC" stroke-width="1" stroke-opacity="0.4" />
    <path d="M84.64 70 L95 76" stroke="#A5B4FC" stroke-width="1" stroke-opacity="0.4" />
    <path d="M15.36 70 L5 76" stroke="#A5B4FC" stroke-width="1" stroke-opacity="0.4" />
    <circle cx="95" cy="24" r="1.5" fill="#A5B4FC" fill-opacity="0.6" />
    <circle cx="5" cy="76" r="1.5" fill="#A5B4FC" fill-opacity="0.6" />
    <path d="M65 35 C 60 30, 40 30, 35 50 C 30 70, 50 75, 60 70" stroke="white" stroke-width="4" stroke-linecap="round" fill="none" />
  </g>

  <!-- Text -->
  <text x="80" y="48" font-family="system-ui, -apple-system, sans-serif" font-size="32" font-weight="700" fill="#FFFFFF">CorevanceTech</text>
  <text x="82" y="68" font-family="system-ui, -apple-system, sans-serif" font-size="12" font-weight="400" fill="#A5B4FC" letter-spacing="0.5">ERPNext Implementation &amp; IT Automation</text>
</svg>
